<?xml version="1.0" encoding="utf-8"?>
<!-- Generator: Adobe Illustrator 16.0.0, SVG Export Plug-In . SVG Version: 6.00 Build 0)  -->
<!DOCTYPE svg PUBLIC "-//W3C//DTD SVG 1.1//EN" "http://www.w3.org/Graphics/SVG/1.1/DTD/svg11.dtd">
<svg version="1.1" id="Layer_1" xmlns="http://www.w3.org/2000/svg" xmlns:xlink="http://www.w3.org/1999/xlink" x="0px" y="0px"
	 width="689px" height="353px" viewBox="0 0 689 353" enable-background="new 0 0 689 353" xml:space="preserve">
<g>
	<defs>
		<rect id="SVGID_1_" x="-52" y="-84" width="792" height="612"/>
	</defs>
	<clipPath id="SVGID_2_">
		<use xlink:href="#SVGID_1_"  overflow="visible"/>
	</clipPath>
	<path clip-path="url(#SVGID_2_)" fill="#00665E" d="M597.875,328.899c1.328,0,2.153-0.969,2.153-2.261
		c0-1.363-0.861-2.333-2.117-2.333c-1.257,0-2.153,0.97-2.153,2.333C595.758,327.823,596.511,328.899,597.875,328.899
		 M577.705,317.235l2.728-8.219c0.502-1.723,1.005-3.445,1.364-5.097h0.107c0.359,1.615,0.825,3.339,1.4,5.204l2.69,8.111H577.705z
		 M583.662,301.121h-3.445l-9.044,27.348h3.051l2.871-8.864h9.511l2.943,8.864h3.158L583.662,301.121z M566.507,328.899
		c1.328,0,2.154-0.969,2.154-2.261c0-1.363-0.862-2.333-2.118-2.333s-2.154,0.97-2.154,2.333
		C564.389,327.823,565.144,328.899,566.507,328.899 M559.509,302.019c-1.041-0.646-3.015-1.293-5.599-1.293
		c-4.989,0-8.363,3.051-8.363,7.214c0,3.769,2.801,6.174,6.927,7.717c3.554,1.437,5.025,3.087,5.025,5.778
		c0,2.943-2.153,4.917-5.814,4.917c-2.226,0-4.414-0.717-5.886-1.687l-0.825,2.476c1.363,0.97,4.056,1.724,6.531,1.724
		c5.886,0,9.045-3.338,9.045-7.681c0-3.912-2.262-6.173-6.676-8.039c-3.661-1.544-5.312-2.907-5.312-5.6
		c0-1.974,1.436-4.307,5.239-4.307c2.297,0,4.021,0.754,4.81,1.256L559.509,302.019z M532.231,302.019
		c-1.04-0.646-3.015-1.293-5.599-1.293c-4.988,0-8.362,3.051-8.362,7.214c0,3.769,2.8,6.174,6.927,7.717
		c3.554,1.437,5.025,3.087,5.025,5.778c0,2.943-2.154,4.917-5.814,4.917c-2.226,0-4.415-0.717-5.887-1.687l-0.825,2.476
		c1.364,0.97,4.056,1.724,6.532,1.724c5.886,0,9.044-3.338,9.044-7.681c0-3.912-2.261-6.173-6.675-8.039
		c-3.661-1.544-5.313-2.907-5.313-5.6c0-1.974,1.436-4.307,5.24-4.307c2.297,0,4.02,0.754,4.81,1.256L532.231,302.019z
		 M514.718,325.957h-11.449v-10.588h10.193v-2.477h-10.193v-9.259h10.839v-2.513H500.29v27.348h14.428V325.957z M494.188,301.121
		h-2.835v11.915c0,4.308,0.071,7.573,0.358,11.377l-0.071,0.036c-1.257-2.835-2.836-5.671-4.773-8.937l-8.829-14.392h-3.122v27.348
		h2.799V316.41c0-4.737-0.035-7.932-0.287-11.413l0.144-0.036c1.328,3.015,3.087,6.065,4.917,9.116l8.722,14.392h2.979V301.121z
		 M458.729,303.167c5.85,0,8.541,6.029,8.541,11.521c0,6.244-2.979,11.735-8.613,11.735c-5.563,0-8.578-5.67-8.578-11.484
		S452.699,303.167,458.729,303.167 M458.873,300.69c-6.855,0-11.916,5.419-11.916,14.32c0,8.542,4.81,13.889,11.593,13.889
		c6.46,0,11.844-4.737,11.844-14.355C470.394,306.289,465.871,300.69,458.873,300.69 M439.42,328.469h2.979V301.12h-2.979V328.469z
		 M433.606,302.019c-1.041-0.646-3.015-1.293-5.6-1.293c-4.988,0-8.362,3.051-8.362,7.214c0,3.769,2.8,6.174,6.927,7.717
		c3.554,1.437,5.024,3.087,5.024,5.778c0,2.943-2.153,4.917-5.813,4.917c-2.226,0-4.414-0.717-5.886-1.687l-0.826,2.476
		c1.364,0.97,4.056,1.724,6.532,1.724c5.886,0,9.044-3.338,9.044-7.681c0-3.912-2.261-6.173-6.674-8.039
		c-3.662-1.544-5.313-2.907-5.313-5.6c0-1.974,1.436-4.307,5.239-4.307c2.297,0,4.02,0.754,4.81,1.256L433.606,302.019z
		 M402.813,314.077v-10.479c0.61-0.145,1.759-0.287,3.373-0.287c3.338,0,6.389,1.256,6.389,5.312c0,3.302-2.44,5.455-6.244,5.455
		H402.813z M410.493,315.262c2.906-1.041,5.096-3.374,5.096-6.999c0-2.044-0.753-3.912-2.045-5.096
		c-1.614-1.508-3.948-2.226-7.501-2.226c-2.153,0-4.522,0.215-6.21,0.574v26.953h2.979v-12.095h3.338
		c3.229,0,4.738,1.687,5.526,5.491c0.718,3.41,1.328,5.814,1.759,6.604h3.087c-0.539-1.041-1.148-3.445-2.009-7.393
		c-0.647-2.979-1.903-5.024-4.021-5.707V315.262z M395.419,325.957h-11.448v-10.588h10.192v-2.477h-10.192v-9.259h10.838v-2.513
		h-13.817v27.348h14.428V325.957z M374.818,301.121l-4.559,13.746c-1.22,3.582-2.333,7.143-3.05,10.336h-0.108
		c-0.718-3.193-1.723-6.646-2.871-10.349l-4.199-13.733h-3.229l8.649,27.348h3.158l9.404-27.348H374.818z M353.571,301.121h-2.836
		v11.915c0,4.308,0.072,7.573,0.359,11.377l-0.072,0.036c-1.256-2.835-2.835-5.671-4.772-8.937l-8.83-14.392h-3.122v27.348h2.799
		V316.41c0-4.737-0.036-7.932-0.287-11.413l0.144-0.036c1.328,3.015,3.086,6.065,4.917,9.116l8.721,14.392h2.979V301.121z
		 M325.182,328.469h2.979V301.12h-2.979V328.469z M312.405,325.957h-11.449v-10.588h10.193v-2.477h-10.193v-9.259h10.839v-2.513
		h-13.818v27.348h14.428V325.957z M275.403,303.669c0.933-0.18,2.297-0.358,4.019-0.358c7.107,0,10.911,3.84,10.911,10.946
		c0,7.824-4.056,12.023-11.449,12.023c-1.292,0-2.584-0.036-3.481-0.18V303.669z M272.424,328.397
		c1.722,0.215,3.66,0.287,5.922,0.287c4.988,0,8.972-1.364,11.376-3.841c2.584-2.691,3.733-6.388,3.733-10.73
		c0-6.712-3.158-13.208-14.14-13.208c-2.549,0-4.882,0.251-6.891,0.574V328.397z M260.185,325.921H248.88v-24.8h-2.979v27.348
		h14.284V325.921z M226.915,317.235l2.727-8.219c0.503-1.723,1.005-3.445,1.365-5.097h0.107c0.359,1.615,0.825,3.339,1.4,5.204
		l2.691,8.111H226.915z M232.873,301.121h-3.445l-9.045,27.348h3.05l2.872-8.864h9.511l2.943,8.864h3.158L232.873,301.121z
		 M204.663,314.077v-10.479c0.61-0.145,1.759-0.287,3.373-0.287c3.338,0,6.389,1.256,6.389,5.312c0,3.302-2.44,5.455-6.244,5.455
		H204.663z M212.344,315.262c2.906-1.041,5.096-3.374,5.096-6.999c0-2.044-0.754-3.912-2.046-5.096
		c-1.615-1.508-3.948-2.226-7.501-2.226c-2.153,0-4.522,0.215-6.209,0.574v26.953h2.979v-12.095h3.338
		c3.23,0,4.738,1.687,5.527,5.491c0.717,3.41,1.328,5.814,1.758,6.604h3.087c-0.539-1.041-1.149-3.445-2.01-7.393
		c-0.646-2.979-1.902-5.024-4.019-5.707V315.262z M198.705,301.121h-19.093v2.513h8.039v24.835h2.979v-24.835h8.075V301.121z
		 M176.597,301.121h-2.835v11.915c0,4.308,0.071,7.573,0.358,11.377l-0.071,0.036c-1.256-2.835-2.836-5.671-4.774-8.937
		l-8.829-14.392h-3.122v27.348h2.799V316.41c0-4.737-0.036-7.932-0.287-11.413l0.144-0.036c1.328,3.015,3.086,6.065,4.917,9.116
		l8.721,14.392h2.979V301.121z M152.91,325.957h-11.449v-10.588h10.193v-2.477h-10.193v-9.259H152.3v-2.513h-13.818v27.348h14.428
		V325.957z M133.493,325.239c-1.364,0.646-3.41,1.112-5.491,1.112c-6.389,0-10.265-4.235-10.265-11.413
		c0-7.537,4.235-11.7,10.444-11.7c2.154,0,3.913,0.502,5.168,1.112l0.79-2.512c-0.861-0.431-2.763-1.113-6.029-1.113
		c-8.004,0-13.495,5.493-13.495,14.32c0,9.26,5.67,13.818,12.705,13.818c3.122,0,5.563-0.61,6.819-1.221L133.493,325.239z"/>
</g>
<g>
	<defs>
		<path id="SVGID_3_" d="M220.278,199.784c0.806,20.917,1.584,41.835,2.372,62.753c0.216,5.748,4.839,5.242,4.839,5.242h60.057
			c3.646-0.443,3.811-4.978,3.811-4.978c1.491-53.864,3.024-107.726,4.546-161.589C279.012,138.701,250.699,172.511,220.278,199.784
			 M279.916,26.968l-54.659,21.808c-10.99,3.647-9.869,11.994-9.574,20.783l3.324,97.216
			c26.358-26.715,77.694-90.901,78.676-129.527c0.253-9.956-4.526-12.354-9.191-12.354
			C284.155,24.895,279.916,26.968,279.916,26.968"/>
	</defs>
	<clipPath id="SVGID_4_">
		<use xlink:href="#SVGID_3_"  overflow="visible"/>
	</clipPath>
	
		<linearGradient id="SVGID_5_" gradientUnits="userSpaceOnUse" x1="-52" y1="528.0059" x2="-51" y2="528.0059" gradientTransform="matrix(-61.12 164.1 164.1 61.12 -89537.9219 -23672.5352)">
		<stop  offset="0" style="stop-color:#00665E"/>
		<stop  offset="0.0897" style="stop-color:#00665F"/>
		<stop  offset="0.1962" style="stop-color:#006763"/>
		<stop  offset="0.3113" style="stop-color:#006969"/>
		<stop  offset="0.4324" style="stop-color:#006972"/>
		<stop  offset="0.5571" style="stop-color:#00667B"/>
		<stop  offset="0.58" style="stop-color:#10657C"/>
		<stop  offset="0.8098" style="stop-color:#00586C"/>
		<stop  offset="1" style="stop-color:#004B5D"/>
	</linearGradient>
	<polygon clip-path="url(#SVGID_4_)" fill="url(#SVGID_5_)" points="377.545,54.545 287.743,295.651 134.658,238.634 224.46,-2.473 
			"/>
</g>
<path fill-rule="evenodd" clip-rule="evenodd" fill="#11657C" d="M120.366,265.865c8.495,1.378,16.852,2.009,24.738,2.009
	c23.108,0,44.03-5.309,52.462-11.241v-37.934C173.526,237.288,147.25,253.385,120.366,265.865 M189.759,97.997l10.305-38.722
	c-8.743-6.245-27.168-12.491-52.462-12.491c-48.09,0-123.973,22.484-123.973,110.545c0,53.299,28.205,83.381,61.811,98.305
	c16.429-5.213,35.964-14.09,56.36-26.513c-37.782-2.893-75.077-24.503-75.077-74.29c0-51.525,44.031-68.388,76.82-68.388
	C164.777,86.443,179.454,91.752,189.759,97.997"/>
<path fill="#11657C" d="M453.81,60.526c-12.804-9.368-33.726-14.052-53.398-14.052c-50.588,0-82.127,26.856-82.127,64.64
	c0,31.539,17.175,45.904,39.034,54.96l36.848,15.301c15.926,6.558,23.108,12.179,23.108,23.733
	c0,16.862-13.428,24.669-35.599,24.669c-19.361,0-43.406-7.808-59.019-19.985v41.844c12.178,9.993,37.472,16.238,57.77,16.238
	c51.524,0,79.629-26.23,79.629-66.514c0-29.353-16.551-44.966-42.781-55.896l-34.662-14.677
	c-14.365-5.933-21.547-11.241-21.547-22.796c0-15.613,13.428-23.42,38.097-23.42c11.555,0,28.729,3.122,44.968,14.365L453.81,60.526
	z"/>
<path fill="#11657C" d="M531.294,183.847l29.978-90.559l29.354,90.559H531.294z M461.032,268.16h42.469l16.238-49.026h82.438
	l15.927,49.026h44.343L589.376,53.317h-54.335L461.032,268.16z"/>
<rect x="-52" y="-84" fill="none" width="792" height="612"/>
</svg>
