<svg width="138" height="49" viewBox="0 0 138 49" fill="none" xmlns="http://www.w3.org/2000/svg">
<path d="M12.8349 13.303C11.8537 14.3695 10.3927 14.8707 8.46239 14.956C7.84384 15.0147 5.94021 14.9827 5.94021 14.9827V22.9492H0.186646V0.569458H8.51571C10.478 0.569458 11.9071 1.10269 12.8882 2.25447C13.816 3.34759 14.3173 5.14458 14.3173 7.77874C14.3226 10.4129 13.848 12.1779 12.8349 13.303ZM8.40373 6.54164C8.26509 6.03507 7.98248 5.67248 7.39592 5.67248H5.90821V10.3542C5.90821 10.3542 7.19863 10.3542 7.28395 10.3542C8.09979 10.3542 8.35041 10.1036 8.48905 9.39976C8.57436 8.95184 8.57436 8.61591 8.57436 8.05602C8.57436 7.49612 8.51571 7.02155 8.40373 6.54164Z" fill="#231F20"/>
<path d="M24.3155 22.9492V14.2255H21.7933V22.9492H16.1304V0.569458H21.7933V9.31977H24.3155V0.569458H30.0104V22.9492H24.3155Z" fill="#231F20"/>
<path d="M46.1353 5.1712C46.3326 6.15234 46.4979 7.97599 46.4979 11.5113C46.4979 14.5401 46.4126 16.8703 45.9647 18.6353C45.0955 22 43.0746 23.2637 39.1767 23.2637C35.0548 23.2637 33.1192 21.7227 32.362 18.5819C31.9141 16.817 31.9141 14.4867 31.9141 11.7086C31.9141 8.54121 31.9994 6.74423 32.25 5.51246C32.9005 2.55837 34.5536 0.345459 39.182 0.345459C43.4158 0.345459 45.6021 2.33441 46.1353 5.1712ZM40.4724 17.2009C40.6697 15.9958 40.755 14.4547 40.755 11.7886C40.755 10.3009 40.7284 7.33078 40.5577 6.51494C40.3871 5.67243 40.0832 5.25118 39.2406 5.25118C38.3715 5.25118 38.0889 5.69909 37.9236 6.5416C37.7849 7.29879 37.6996 10.2689 37.6996 11.7833C37.6996 14.5027 37.8116 16.1877 37.9822 17.2222C38.0942 17.8674 38.4568 18.4007 39.246 18.4007C39.9658 18.406 40.3604 17.8194 40.4724 17.2009Z" fill="#231F20"/>
<path d="M48.3802 22.9492V0.569458H60.2979V5.75779H54.0431V9.23446H59.93V14.1402H54.0431V17.8728H60.3512V22.9492H48.3802Z" fill="#231F20"/>
<path d="M70.6478 22.9492L67.4804 14.2575V22.9492H62.1801V0.569458H66.9739L70.1413 9.43175V0.569458H75.5002V22.9492H70.6478Z" fill="#231F20"/>
<path d="M77.7453 22.9492V0.569458H83.6055V22.9492H77.7453Z" fill="#231F20"/>
<path d="M91.0651 22.9492H84.8956L89.7747 11.2821L85.2049 0.569458H91.3211L93.0861 5.28322L94.8511 0.569458H100.573L96.0295 12.2099L100.658 22.9492H94.5418L92.7768 18.3794L91.0651 22.9492Z" fill="#231F20"/>
<path d="M14.1626 43.0252C13.8 46.0273 11.6404 47.9629 7.34792 47.9629C3.47666 47.9629 1.57303 46.3952 0.815843 44.2037C0.197295 42.492 0 39.7139 0 36.4612C0 33.3204 0.170634 31.7474 0.586554 29.6465C1.14645 26.7564 3.86592 25.13 7.53988 25.13C11.6351 25.13 13.7947 27.039 14.1306 30.5156C14.2426 31.4115 14.2693 33.3204 14.2693 34.1896H8.77698C8.75031 33.2351 8.71832 32.1153 8.63834 31.4115C8.52636 30.7396 8.13177 30.3183 7.43324 30.3183C6.70271 30.3183 6.28146 30.7929 6.16948 31.4701C5.94552 32.9258 5.91886 34.7495 5.91886 36.3492C5.91886 38.93 6.0575 41.2869 6.20147 41.8734C6.39877 42.6893 6.84668 42.9133 7.46523 42.9133C8.11044 42.9133 8.53169 42.6306 8.64367 41.8468C8.75565 40.807 8.8143 39.4633 8.8143 39.0687H14.3119C14.3012 39.7405 14.3332 41.5642 14.1626 43.0252Z" fill="#231F20"/>
<path d="M30.1221 29.9291C30.3194 30.9102 30.4847 32.7339 30.4847 36.2692C30.4847 39.2979 30.3994 41.6281 29.9515 43.3931C29.0823 46.7578 27.0614 48.0216 23.1635 48.0216C19.0416 48.0216 17.106 46.4805 16.3488 43.3398C15.9009 41.5748 15.9009 39.2446 15.9009 36.4665C15.9009 33.2991 15.9862 31.5021 16.2368 30.2703C16.882 27.3269 18.535 25.1087 23.1635 25.1087C27.3973 25.1033 29.5889 27.0976 30.1221 29.9291ZM24.4539 41.9587C24.6512 40.7536 24.7365 39.2126 24.7365 36.5465C24.7365 35.0587 24.7099 32.0886 24.5392 31.2728C24.3686 30.4303 24.0646 30.009 23.2221 30.009C22.353 30.009 22.0704 30.457 21.9051 31.2995C21.7664 32.0566 21.6811 35.0267 21.6811 36.5411C21.6811 39.2606 21.7931 40.9456 21.9637 41.9801C22.0757 42.6253 22.4383 43.1585 23.2275 43.1585C23.9527 43.1638 24.3419 42.5773 24.4539 41.9587Z" fill="#231F20"/>
<path d="M49.4891 25.3274V34.8082L45.8044 25.3274H41.1547V34.8082L37.3954 25.3274H32.3617V47.7071H37.614V38.3915L41.2453 47.7071H45.9484V38.2262L49.713 47.7071H54.7414V25.3274H49.4891Z" fill="#231F20"/>
<path d="M56.8316 47.7071V25.3274H68.7493V30.5157H62.4945V33.9924H68.3814V38.8981H62.4945V42.6307H68.8026V47.7071H56.8316Z" fill="#231F20"/>
<path d="M84.4531 43.0252C84.0905 46.0273 81.9309 47.9629 77.6384 47.9629C73.7672 47.9629 71.8636 46.3952 71.1064 44.2037C70.4878 42.492 70.2905 39.7192 70.2905 36.4612C70.2905 33.3204 70.4612 31.7474 70.8771 29.6465C71.437 26.7564 74.1564 25.13 77.8304 25.13C81.9256 25.13 84.0852 27.039 84.4211 30.5156C84.5331 31.4115 84.5598 33.3204 84.5598 34.1896H79.0622C79.0355 33.2351 79.0035 32.1153 78.9235 31.4115C78.8115 30.7396 78.417 30.3183 77.7184 30.3183C76.9879 30.3183 76.5666 30.7929 76.4547 31.4701C76.2307 32.9258 76.2041 34.7495 76.2041 36.3492C76.2041 38.93 76.3427 41.2869 76.4867 41.8734C76.684 42.6893 77.1319 42.9133 77.7504 42.9133C78.3956 42.9133 78.8169 42.6306 78.9289 41.8468C79.0408 40.807 79.0995 39.4633 79.0995 39.0687H84.5971C84.5918 39.7405 84.6238 41.5642 84.4531 43.0252Z" fill="#231F20"/>
<path d="M95.1177 30.5157V47.7071H89.3428V30.5157H85.7542V25.3274H98.7383V30.5157H95.1177Z" fill="#231F20"/>
<path d="M100.423 47.7071V25.3274H106.283V47.7071H100.423Z" fill="#231F20"/>
<path d="M122.408 29.9291C122.606 30.9102 122.771 32.7339 122.771 36.2692C122.771 39.2979 122.686 41.6281 122.238 43.3931C121.369 46.7578 119.348 48.0216 115.45 48.0216C111.328 48.0216 109.392 46.4805 108.635 43.3398C108.187 41.5748 108.187 39.2446 108.187 36.4665C108.187 33.2991 108.272 31.5021 108.523 30.2703C109.168 27.3269 110.821 25.1087 115.45 25.1087C119.689 25.1033 121.875 27.0976 122.408 29.9291ZM116.745 41.9587C116.943 40.7536 117.028 39.2126 117.028 36.5465C117.028 35.0587 117.001 32.0886 116.831 31.2728C116.66 30.4303 116.356 30.009 115.514 30.009C114.644 30.009 114.362 30.457 114.197 31.2995C114.058 32.0566 113.973 35.0267 113.973 36.5411C113.973 39.2606 114.085 40.9456 114.255 41.9801C114.367 42.6253 114.73 43.1585 115.519 43.1585C116.239 43.1638 116.628 42.5773 116.745 41.9587Z" fill="#231F20"/>
<path d="M133.148 47.7071L129.98 39.0154V47.7071H124.68V25.3274H129.474L132.641 34.1897V25.3274H138V47.7071H133.148Z" fill="#231F20"/>
</svg>
